<?xml version="1.0" encoding="UTF-8"?>
<svg id="Layer_1" xmlns="http://www.w3.org/2000/svg" version="1.1" viewBox="0 0 729.29 106.2">
  <!-- Generator: Adobe Illustrator 30.3.0, SVG Export Plug-In . SVG Version: 2.1.3 Build 182)  -->
  <defs>
    <style>
      .st0 {
        fill: #cf4b27;
      }
    </style>
  </defs>
  <path class="st0" d="M178.45,45h3.15l8.1-3.6c27.03-8.2,53.09-21.3,80.1-26.1.34-.06.57-.86.9-.9,1.3-.16,4.18-.22,5.4,0,.26.05,1.29,1.53,2.7.9l4.05,4.05c-.27,1.93.38,4.54,0,6.3-.22,1.01-2.1,2.74-2.7,3.6-1.24,1.78-3.11,4.71-4.5,6.3-4.75,5.46-10.61,9.8-15.3,14.85,1.51.26,2.71-.4,4.05-.9,9.27-3.48,19.26-8.12,29.7-10.8.36-.09.56-.83.9-.9,1.56-.32,3.49.7,4.5-.9l4.5.9c3.22,2.41,4.33,5.28,2.25,9,1.7.66,2.69-.78,3.15-.9,9.13-2.31,17.62-4.42,27-7.2,18.02-5.34,35.8-11.98,54-15.3.82-.15,2.78-.15,3.6,0,.33.06.53.78.9.9.54.17,1.24-.16,1.8,0,2.27.65,3.79,6.17,3.15,8.55l-3.6,6.75c1.01-.12,2.23.19,3.15,0,5.1-1.05,11.83-3.04,17.1-4.5,26.74-7.39,53.96-20.06,81.9-27,1.09-.27,4.51-1.69,5.4-1.8,1.3-.16,4.18-.22,5.4,0,.33.06.53.8.9.9.58.17,1.31-.19,1.8,0,.35.14.53.73.9.9.28.13.7-.12.9,0,1.87,1.11,2.3,3.68,4.05,4.95l.9,4.95c1.45-.49,1.9.84,2.25.9,3.04.53,11.01.25,14.4,0,19.08-1.4,39.33-6.23,57.6-9.9,7.42-1.49,15.21-3.35,22.5-4.5,3.13-.5,7.96-.26,10.8-.9.36-.08.61-1.23,1.8-.9.36.1.56.83.9.9.83.17,1.96-.2,2.7,0,.33.09.51.72.9.9.28.13.71-.12.9,0,.55.33,3.72,3.5,4.05,4.05,1.35,2.27.71,4.53,4.05,6.75.2.13.67-.14.9,0,1,.62,3.71,2.48,4.5,2.7,2.08.57,5.06.52,7.2.9,2.93.52,7.94,1.62,10.8,1.8,18.4,1.13,36.85-2.36,54-4.5,1.21-.15,4.35-.24,5.4,0,.32.07.51.72.9.9.28.13.71-.12.9,0,.42.25,3.12,2.93,3.15,3.15,1.12,7.76-25.2,9.45-25.2,9.45-1.6.14-3.4-.21-4.95,0-.34.05-.58.87-.9.9-17.18,1.64-42.79,2.49-57.6-3.6-3.31-1.36-8.42-3.85-10.35-6.75-.61-.92-1.19-3.56-1.8-4.5-1.02-1.58-3.13-1.68-4.95-1.35-3.15.58-6.52,1.18-9.9,1.8-14.01,2.55-28.22,6.62-42.3,9-13.94,2.36-28.29,3.32-42.3,5.4-2.74.41-4.27-.76-5.4-.9-3.19-.39-6.54.4-9-1.8-1.07.08-5.68-4.35-5.85-4.95-.16-.57.18-1.28,0-1.8-.22-.64-1.52-1.4-.9-3.15-1.58.16-3.43-.23-4.95,0-2.04.31-5.89,2.06-8.1,2.7-29.97,8.66-59.59,22.06-89.1,28.8-4.45,1.02-9.09,1.01-13.5,1.8-.25.05-.94,1.43-2.7.9-.37-.11-.56-.82-.9-.9-.81-.19-1.95.21-2.7,0-.33-.09-.51-.72-.9-.9-.28-.13-.71.12-.9,0-.35-.21-2.2-2.09-2.25-2.25-.16-.56.17-1.26,0-1.8-.12-.37-.82-.56-.9-.9-.61-2.61,2.23-6.6,3.6-9-.81-1.56-1.88.36-2.25.45-24.54,6.15-48.82,14.83-72.9,20.7-3.07.75-5.69,1.21-9,1.8-.45.08-1.36,1.42-3.6.9-.34-.08-.53-.78-.9-.9-.54-.17-1.24.16-1.8,0-.21-.06-3.09-2.94-3.15-3.15-.29-1.07.94-6.04-1.35-4.95-.64.31-2.15,1.6-2.7,1.8-10.25,3.69-20.97,7.79-31.5,10.8-3.1.89-4.78,1.18-8.1,1.8-.34.06-.56.84-.9.9-.78.14-2.87.16-3.6,0-.33-.07-.52-.75-.9-.9-.61-.24-2.3-.64-2.7-.9-1.81-1.16-2.69-4.76-2.25-6.75.13-.57,2.01-2.42,1.8-3.6,3.48-3.11,6.89-6.31,10.35-9.45.16-.15.73.15.9,0,6.42-5.82,12.1-12.55,18.45-18.45-.96-1.64-2.83.37-3.15.45-41.86,10.13-81.6,31.1-124.2,44.1-2.34.72-3.57,1.19-6.3,1.8-.35.08-.56.84-.9.9-3.71.68-6.22-1.37-8.55-4.05-.28-2.13.31-5.52,2.25-6.75.23-.15.71.13.9,0,6.88-4.86,13.72-9.33,20.7-13.5,15.69-9.38,35.14-18.53,49.5-28.8.61-.44,1.21-1.23,1.8-1.8.42-.41,4.1-.39,0-.9-1.11,1.05-3.01,1.25-4.5,1.8-32.61,12.02-66.09,27.43-98.1,42.3-31.48,14.62-60.29,29.02-90.9,44.1h-2.7c-.81-.85-3.71-1.91-4.05-3.15-.85-3.08.58-5.96,3.15-7.65,2.88-1.9,10.63-5.41,14.4-7.2,48.43-23,98.8-45.07,147.6-65.7,16.96-7.17,33.9-15.4,51.3-20.7,2.53-.77,4.78-.5,7.2-.9C224.24.84,224.5,0,224.8,0s.55.84.9.9c2.1.36,3.43-.3,4.95,2.25.12.19-.13.62,0,.9.49,1.08,1.38,1.57.9,3.6-.08.34-.78.53-.9.9-.17.54.16,1.24,0,1.8-.11.4-4.99,5.14-5.85,5.85-11,9.1-28.57,18.62-41.4,26.1-1.59.93-3.1,2.67-4.95,2.7h0Z"/>
</svg>